<?xml version="1.0" encoding="UTF-8"?>
<svg id="Layer_1" xmlns="http://www.w3.org/2000/svg" version="1.1" xmlns:xlink="http://www.w3.org/1999/xlink" viewBox="0 0 203 167">
  <!-- Generator: Adobe Illustrator 29.2.1, SVG Export Plug-In . SVG Version: 2.1.0 Build 116)  -->
  <defs>
    <style>
      .st0 {
        clip-path: url(#clippath-4);
      }

      .st1 {
        mask: url(#mask-1);
      }

      .st2 {
        fill: #574335;
      }

      .st3 {
        mask: url(#mask);
      }

      .st4 {
        fill: none;
      }

      .st5 {
        clip-path: url(#clippath-1);
      }

      .st6 {
        isolation: isolate;
      }

      .st7 {
        clip-path: url(#clippath-3);
      }

      .st8 {
        clip-path: url(#clippath-2);
      }

      .st9 {
        clip-path: url(#clippath);
      }
    </style>
    <clipPath id="clippath">
      <rect class="st4" x="-144" y="-158.9" width="500" height="500"/>
    </clipPath>
    <clipPath id="clippath-1">
      <rect class="st4" x="12" y="138.4" width="193.3" height="20"/>
    </clipPath>
    <clipPath id="clippath-2">
      <rect class="st4" x="12.2" y="142.4" width="14.5" height="12"/>
    </clipPath>
    <clipPath id="clippath-3">
      <rect class="st4" x="-19" y="-48.6" width="250.7" height="183"/>
    </clipPath>
    <mask id="mask" x="-187.9" y="-213" width="570.5" height="570.5" maskUnits="userSpaceOnUse">
      <g id="_x33_e56d239e8">
        <image class="st6" width="1200" height="1200" transform="translate(-187.9 -213) scale(.5)" xlink:href="g (3)-1.png"/>
      </g>
    </mask>
    <clipPath id="clippath-4">
      <rect class="st4" x="-19" y="-16.5" width="250.7" height="166.1"/>
    </clipPath>
    <mask id="mask-1" x="-187.9" y="-213" width="570.5" height="570.5" maskUnits="userSpaceOnUse">
      <g id="_x30_fa59d3c66">
        <image class="st6" width="1200" height="1200" transform="translate(-187.9 -213) scale(.5)" xlink:href="g (3)-3.png"/>
      </g>
    </mask>
  </defs>
  <g class="st9">
    <g>
      <g class="st5">
        <g>
          <g class="st8">
            <path class="st2" d="M25.6,142.8c-.3,0-.6.1-.8.2-.2.1-.3.3-.3.6v9c0,.3.1.5.3.6.2,0,.5.2.8.2h0c0,0-3.9,0-3.9,0h0c.3-.1.6-.2.8-.3.2-.1.4-.3.4-.6v-9.1l-4.3,10.1-4.4-8.8v5.9c0,.7,0,1.2.1,1.6.1.4.3.6.4.8.2.1.4.2.6.3h0c0,0-2.6,0-2.6,0h0c.2-.1.4-.2.6-.3.2,0,.3-.3.4-.6.1-.3.2-.8.2-1.5v-6.8c-.1-.3-.3-.6-.5-.8-.2-.3-.4-.5-.8-.7h2.2l4.4,8.7,3.7-8.7h2.7Z"/>
          </g>
          <path class="st2" d="M40.1,150.5h0s-.8,3-.8,3v.3c0,0-.6-.3-.6-.3h-7.9c.3-.2.6-.3.8-.5.2-.2.4-.4.4-.7v-8.7c0-.3-.1-.5-.4-.6-.2-.1-.5-.2-.8-.2h0c0,0,8.2,0,8.2,0l.5,2.4h0c-.3-.5-.7-.9-1-1.2-.3-.3-.6-.6-1-.8-.4-.2-.8-.3-1.4-.3h-2.6v5h2.1c.5,0,1,0,1.3-.1.3-.1.6-.3.7-.5.2-.2.3-.5.5-.9v3.4c-.1-.4-.3-.7-.5-.9-.2-.2-.4-.4-.7-.5-.3-.1-.7-.2-1.3-.2h-2.1v5h2.9c.6,0,1.1-.1,1.4-.3.4-.2.8-.5,1.1-.9.3-.4.7-.9,1.1-1.5Z"/>
          <path class="st2" d="M54.2,150.5h0s-.8,3-.8,3v.3c-.1,0-.6-.3-.6-.3h-7.5c.3-.2.6-.3.8-.5.2-.2.4-.4.4-.7v-8.7c0-.3-.1-.5-.4-.6-.2-.1-.5-.2-.8-.2h0c0,0,4,0,4,0h0c-.4.1-.7.2-1,.3-.2.1-.4.3-.4.6v9.6h2.1c.7,0,1.3-.1,1.7-.3.5-.2.9-.5,1.2-.9.3-.4.7-.9,1.1-1.5Z"/>
          <path class="st2" d="M68.2,150.5h0s-.8,3-.8,3v.3c-.1,0-.6-.3-.6-.3h-7.5c.3-.2.6-.3.8-.5.2-.2.4-.4.4-.7v-8.7c0-.3-.1-.5-.4-.6-.2-.1-.5-.2-.8-.2h0c0,0,4,0,4,0h0c-.4.1-.7.2-1,.3-.2.1-.4.3-.4.6v9.6h2.1c.7,0,1.3-.1,1.7-.3.5-.2.9-.5,1.2-.9.3-.4.7-.9,1.1-1.5Z"/>
          <path class="st2" d="M73.5,153.5h0c.3-.1.6-.2.8-.3.2-.1.4-.3.4-.6v-9c0-.3-.1-.5-.4-.6-.2-.1-.5-.2-.8-.2h0c0,0,3.9,0,3.9,0h0c-.3.1-.6.2-.8.3-.2.1-.3.3-.3.6v9c0,.3.1.5.3.6.2,0,.5.2.8.2h0c0,0-3.9,0-3.9,0Z"/>
          <path class="st2" d="M90.7,142.8h2.6c-.2,0-.4.2-.6.3-.2,0-.3.3-.4.6,0,.3-.1.8-.1,1.5v5.8c0,.8,0,1.4,0,1.9,0,.4,0,.8,0,1.1h0s-8.1-9.5-8.1-9.5v6.4c0,.7,0,1.2.2,1.6.1.4.3.6.4.8.2.1.4.2.6.3h0c0,0-2.6,0-2.6,0h0c.2-.1.4-.2.6-.3.2,0,.3-.3.4-.6.1-.3.2-.8.2-1.5v-7.1c-.3-.3-.5-.5-.7-.7-.2-.2-.4-.4-.7-.5h2.6c0,0,.1.2.2.3,0,.1.2.3.4.5l6.3,7.4v-5.6c0-.7,0-1.2-.2-1.6-.1-.4-.3-.6-.4-.8-.2-.2-.4-.2-.6-.3h0Z"/>
          <path class="st2" d="M116.5,151.5c.2.5.3.8.5,1.1.2.3.3.5.5.6.2.1.4.2.6.2h0c0,0-4.3,0-4.3,0h0c.4,0,.7-.2.9-.3.2-.1.4-.3.4-.5,0-.3,0-.6-.2-1l-.3-.8h-6l-.3.8c-.2.4-.3.8-.2,1,0,.2.2.4.4.5.2.1.4.2.7.3h0c0,0-2.8,0-2.8,0h0c.2-.1.4-.2.6-.3.2-.1.3-.3.5-.5.2-.2.3-.6.5-1l3.4-7.9v-.3s.2-.2.2-.2l1.4-.9c0,0,0,.1,0,.3,0,.1.1.4.3.8l3.2,8.2ZM108.7,150.6h5.8l-2.8-6.9-3,6.9Z"/>
          <path class="st2" d="M131.8,142.8l-1,3.1h0c.1-1,0-1.8-.5-2.2-.4-.5-1-.7-1.8-.7h-1.1v9.5c0,.3.1.6.4.7.3.1.6.2,1.1.2h0c0,0-4.5,0-4.5,0h0c.5-.1.8-.2,1.1-.3.3-.1.4-.4.4-.7v-9.5h-.4c-.6,0-1.1,0-1.5.2-.4.1-.7.3-1,.5-.3.2-.5.5-.8.9-.2.4-.4.8-.6,1.3h0l.5-3.1h9.8Z"/>
          <path class="st2" d="M146.1,150.5h0s-.8,3-.8,3v.3c0,0-.6-.3-.6-.3h-7.9c.3-.2.6-.3.8-.5.2-.2.4-.4.4-.7v-8.7c0-.3-.1-.5-.4-.6-.2-.1-.5-.2-.8-.2h0c0,0,8.2,0,8.2,0l.5,2.4h0c-.3-.5-.7-.9-1-1.2-.3-.3-.6-.6-1-.8-.4-.2-.8-.3-1.4-.3h-2.6v5h2.1c.5,0,1,0,1.3-.1.3-.1.6-.3.7-.5.2-.2.3-.5.5-.9v3.4c-.1-.4-.3-.7-.5-.9-.2-.2-.4-.4-.7-.5-.3-.1-.7-.2-1.3-.2h-2.1v5h2.9c.6,0,1.1-.1,1.4-.3.4-.2.8-.5,1.1-.9.3-.4.7-.9,1.1-1.5Z"/>
          <path class="st2" d="M160.2,150.5h0s-.8,3-.8,3v.3c-.1,0-.6-.3-.6-.3h-7.5c.3-.2.6-.3.8-.5.2-.2.4-.4.4-.7v-8.7c0-.3-.1-.5-.4-.6-.2-.1-.5-.2-.8-.2h0c0,0,4,0,4,0h0c-.4.1-.7.2-1,.3-.2.1-.4.3-.4.6v9.6h2.1c.7,0,1.3-.1,1.7-.3.5-.2.9-.5,1.2-.9.3-.4.7-.9,1.1-1.5Z"/>
          <path class="st2" d="M165.4,153.5h0c.3-.1.6-.2.8-.3.2-.1.4-.3.4-.6v-9c0-.3-.1-.5-.4-.6-.2-.1-.5-.2-.8-.2h0c0,0,3.9,0,3.9,0h0c-.3.1-.6.2-.8.3-.2.1-.3.3-.3.6v9c0,.3.1.5.3.6.2,0,.5.2.8.2h0c0,0-3.9,0-3.9,0Z"/>
          <path class="st2" d="M183.8,150.5h0s-.8,3-.8,3v.3c0,0-.6-.3-.6-.3h-7.9c.3-.2.6-.3.8-.5.2-.2.4-.4.4-.7v-8.7c0-.3-.1-.5-.4-.6-.2-.1-.5-.2-.8-.2h0c0,0,8.2,0,8.2,0l.5,2.4h0c-.3-.5-.7-.9-1-1.2-.3-.3-.6-.6-1-.8-.4-.2-.8-.3-1.4-.3h-2.6v5h2.1c.5,0,1,0,1.3-.1.3-.1.6-.3.7-.5.2-.2.3-.5.5-.9v3.4c-.1-.4-.3-.7-.5-.9-.2-.2-.4-.4-.7-.5-.3-.1-.7-.2-1.3-.2h-2.1v5h2.9c.6,0,1.1-.1,1.4-.3.4-.2.8-.5,1.1-.9.3-.4.7-.9,1.1-1.5Z"/>
          <path class="st2" d="M197.3,151.5c.3.4.6.7.8,1,.3.2.5.4.7.6.2.1.5.3.8.4h0s-2.8,0-2.8,0v-.3l-3-4.1h-2.1v3.5c0,.3.1.5.3.6.2,0,.5.2.8.2h0c0,0-3.9,0-3.9,0h0c.3-.1.6-.2.8-.3.2-.1.4-.3.4-.6v-9c0-.3-.1-.5-.4-.6-.2-.1-.5-.2-.8-.2h0c0,0,5.4,0,5.4,0,1.2,0,2.2.2,3,.7.7.5,1.1,1.2,1.1,2.1s-.3,1.5-.8,2.1-1.3,1-2.2,1.2l1.9,2.6ZM191.8,148.5c.8.2,1.6.4,2.4.4s1.1,0,1.5-.2c.4-.2.7-.4.9-.8.2-.4.3-.9.3-1.6s0-.8-.1-1.1c0-.4-.2-.7-.5-1-.2-.3-.6-.5-1-.7-.4-.2-1-.3-1.7-.3h-1.8v5.4Z"/>
        </g>
      </g>
      <g class="st7">
        <g class="st3">
          <image class="st6" width="1200" height="1200" transform="translate(-187.9 -213) scale(.5)" xlink:href="g (3)-2.png"/>
        </g>
      </g>
      <g class="st0">
        <g class="st1">
          <image class="st6" width="1200" height="1200" transform="translate(-187.9 -213) scale(.5)" xlink:href="g (3)-4.png"/>
        </g>
      </g>
    </g>
  </g>
</svg>