<?xml version="1.0" encoding="UTF-8"?>
<svg id="Layer_1" xmlns="http://www.w3.org/2000/svg" version="1.1" viewBox="0 0 540 564.7">
  <!-- Generator: Adobe Illustrator 29.2.1, SVG Export Plug-In . SVG Version: 2.1.0 Build 116)  -->
  <defs>
    <style>
      .st0 {
        fill: #765c4b;
      }

      .st1 {
        fill: #f7f4ef;
      }
    </style>
  </defs>
  <g>
    <g>
      <path class="st1" d="M960.7-374.8c1,.2,2.9,1.9,3.4,3l37.8,91.1,2-1.2c10.3-23.1,17-50,27.8-72.6,4.1-8.5,14-24.3,25.3-17.1s4.1,14.9,2.5,21.4c-2.7,11.1-7.1,22.6-11.1,33.3-1.4-5.2.9-10.7,1.3-15.8.4-4.5.9-10.9,1-15.3.3-13.9-7.1-22.7-16.1-8l-38.2,97.9-49.7-106.7v106.2c0,3.1,5.8,5.5,8.6,5.9,2.4.3,9.2-1.5,8.6,1.8h-36.2c1.9-3.3,7.1-1.3,10.3-1.9s6.3-4.4,6.5-8.7c-.6-30.3-1.1-60.9-.6-91.2,0-4.4,3-15.5-1.4-18.4-2.7-1.8-8.6-1.5-11.7-1.9s-1.5.4-1.3-1.8c8.9,1.3,23-1.8,31.2,0h0Z"/>
      <path class="st1" d="M1024.5-251c-1.5-1.1,0-1.6,1.3-1.8,2.8-.3,5.9.7,8.6-.5,9.5-4,10-42,12.2-52,4.3-19.5,14.5-41.1,19.7-60.8,3.8-8.8,14.2-9.6,22.9-8.9s3.5-.2,4,1.8c-5.8,0-12.8.9-14.9,7.3-7.1,27.8-17.5,54.9-23.9,82.8-3.3,14.4-7.9,27.4,11.5,30,14.5,1.9,32,0,41.8-12l10-18.5-9.5,32.6h-83.7Z"/>
    </g>
    <g>
      <path class="st1" d="M928.1-229.2h1.2l1.5,4.2c.2.5.4,1.1.6,1.6h0c.2-.5.4-1.1.5-1.6l1.5-4.2h1.2v7.9h-.9v-4.3c0-.7,0-1.6.1-2.3h0l-.6,1.8-1.5,4.1h-.7l-1.5-4.1-.6-1.8h0c0,.7.1,1.6.1,2.3v4.3h-.9v-7.9h0Z"/>
      <path class="st1" d="M945-229.2h4.5v.8h-3.5v2.5h3v.8h-3v2.9h3.7v.8h-4.7v-7.9h0Z"/>
      <path class="st1" d="M959.5-229.2h1v7h3.4v.8h-4.4v-7.9h0Z"/>
      <path class="st1" d="M973.5-229.2h1v7h3.4v.8h-4.4v-7.9h0Z"/>
      <path class="st1" d="M987.5-229.2h1v7.9h-1v-7.9Z"/>
      <path class="st1" d="M998.8-229.2h1l2.8,4.9.8,1.6h0c0-.8-.1-1.7-.1-2.5v-4.1h1v7.9h-1l-2.8-5-.8-1.6h0c0,.8.1,1.6.1,2.5v4.1h-1v-7.9h0Z"/>
      <path class="st1" d="M1026.9-229.2h1.1l2.7,7.9h-1.1l-1.4-4.4c-.3-.9-.5-1.7-.8-2.7h0c-.2.9-.5,1.8-.8,2.7l-1.4,4.4h-1l2.7-7.9h0ZM1025.6-224.5h3.6v.8h-3.6v-.8Z"/>
      <path class="st1" d="M1040.9-228.3h-2.4v-.8h5.8v.8h-2.4v7h-1v-7Z"/>
      <path class="st1" d="M1053.9-229.2h4.5v.8h-3.5v2.5h3v.8h-3v2.9h3.7v.8h-4.7v-7.9h0Z"/>
      <path class="st1" d="M1068.4-229.2h1v7h3.4v.8h-4.4v-7.9h0Z"/>
      <path class="st1" d="M1082.4-229.2h1v7.9h-1v-7.9Z"/>
      <path class="st1" d="M1093.7-229.2h4.5v.8h-3.5v2.5h3v.8h-3v2.9h3.7v.8h-4.7v-7.9h0Z"/>
      <path class="st1" d="M1108.2-229.2h2.5c1.6,0,2.8.6,2.8,2.2s-1.2,2.3-2.8,2.3h-1.5v3.3h-1v-7.9h0ZM1110.5-225.4c1.2,0,1.9-.5,1.9-1.5s-.7-1.4-1.9-1.4h-1.3v2.9h1.3ZM1110.4-224.9l.8-.5,2.4,4.1h-1.1l-2.1-3.6h0Z"/>
    </g>
  </g>
  <g>
    <g>
      <path class="st0" d="M129.7,30.1l93.4,228.5,4.9-3c25.4-57.9,42-125.4,68.7-182.1,10.1-21.3,34.6-60.9,62.5-42.9s-11.4,110.3-21.2,137.2c1.8-19.1,2.2-26.8,3.2-39.6,1-11.3,2.2-27.3,2.5-38.4.7-34.9-17.1-60-36.3-19.1l-97.8,244.6L86.7,47.4l.8,258.9c0,7.8,13.1,20.2,20,21.2,5.9.8,18.8-2.5,21.7,5.5H39.8c4.7-8.3,13.7-4.1,21.6-5.6,7.9-1.5,19.4-10.2,19.9-21-1.5-76-2.7-152.7-1.5-228.7.6-39,1.8-42.6-3.5-46.1-6.7-4.5-31.6-5.1-31.6-5.1,0,0,0-1.5,0-4.3,25.9.7,55.9-3,76.5.2,0,0,4.5.9,8.4,7.8Z"/>
      <path class="st0" d="M278.9,333c-2.2-1.7,5-4.7,12.5-7.5,9.9-3.7,18.1-11.1,22.7-20.7,6.6-13.8,6.4-28.8,21.8-108.7,10.6-48.9,33.4-102.4,46.2-151.8,9.4-22.1,35-23.3,56.6-22.3,9.3.4,13,.5,14.3,1,0,0-.3,1.8-.3,4.2-14.3,0-35.7,1.6-40.9,17.6-17.5,69.7-43.2,137.7-59,207.6-8.2,36.1-18.3,65.8,29.6,72.3,30.6,4.1,65.4,4.1,90.3-15.5,6.5-5.2,11.8-11.8,15.8-19.2l20.7-38.8-23.5,81.8h-206.8Z"/>
    </g>
    <g>
      <path class="st0" d="M26.3,516.6v14.9c0,5.3,1.4,6.5,3,6.7v.2h-6.7v-.2c1.6-.2,3-.6,3-5.9v-17.2c-.7-1.5-1.5-2.6-3.2-3.9h6.9l10.3,20.7,8.8-20.7h8.3v.2c-1.6.2-3,.6-3,2v22.8c0,1.4,1.4,1.8,3,2v.2h-11.3v-.2c1.6-.2,3-.6,3-2v-23l-10.9,25.7-11.1-22.2Z"/>
      <path class="st0" d="M92,538.4h-20.6v-.2c1.6-.6,3-1.4,3-2.8v-22c0-1.4-1.4-1.8-3-2v-.2h21.4l1.4,6.9h-.2c-3-4.3-4.5-6.2-9.5-6.2h-4.9v12.7h3.3c4.8,0,6.7-1.1,7.6-4.6v9.8c-.9-3.5-2.8-4.6-7.6-4.6h-3.3v12.7h5.1c5,0,7.5-2.5,10.7-7.7h.2c0,0-2.1,8.3-2.1,8.3l-.2.9-1.3-.9Z"/>
      <path class="st0" d="M129.8,538.4h-19.8v-.2c1.6-.6,3-2.1,3-4.2v-20.7c0-1.4-1.4-1.8-3-2v-.2h11.6v.2c-2,.2-3.3.6-3.3,2v24.4h3c6.6,0,8.4-2.7,12-7.4h.2c0,0-2,8-2,8l-.2.9-1.3-.9Z"/>
      <path class="st0" d="M167.6,538.4h-19.8v-.2c1.6-.6,3-2.1,3-4.2v-20.7c0-1.4-1.4-1.8-3-2v-.2h11.6v.2c-2,.2-3.3.6-3.3,2v24.4h3c6.6,0,8.4-2.7,12-7.4h.2c0,0-2,8-2,8l-.2.9-1.3-.9Z"/>
      <path class="st0" d="M188.6,536.2v-22.8c0-1.4-1.4-1.8-3-2v-.2h11.3v.2c-1.6.2-3,.6-3,2v22.8c0,1.4,1.4,1.8,3,2v.2h-11.3v-.2c1.6-.2,3-.6,3-2Z"/>
      <path class="st0" d="M215.4,515.1v16.4c0,5.3,1.4,6.5,3,6.7v.2h-6.7v-.2c1.6-.2,3-.6,3-5.9v-18.1c-1.3-1.6-2.3-2.5-3.5-3.1h7.8c.2.4.6.8,1.2,1.6l15,17.7v-12.4c0-5.3-1.4-6.5-3-6.7v-.2h6.7v.2c-1.6.2-3,.6-3,5.9v14.7c0,4,.1,6.1.2,7.5h0c0,0-20.5-24.3-20.5-24.3Z"/>
      <path class="st0" d="M278.3,533.7l8.5-19.7v-1.1c0,0,.7-.4.7-.4l4.6-2.5c0,.2,0,.7.9,2.7l8.2,20.8c1.4,3.6,2.1,4.5,3.9,4.7v.2h-12.3v-.2c2.7-.2,4.3-1.1,2.9-4.5l-.8-1.9h-14.9l-.9,1.9c-1.4,3.3.1,4,2.3,4.5v.2h-7.2v-.2c1.6-.5,2.6-1.2,4-4.6ZM294.7,531.1l-6.9-17.2-7.4,17.2h14.3Z"/>
      <path class="st0" d="M325.9,535.8v-24.1h-.7c-5.2,0-7.4,2.1-9.7,7.4h-.2l1.3-8h25.5l-2.5,8h-.2c.5-5.3-2.5-7.4-6.8-7.4h-1.5v24.1c0,1.8,1.4,2.2,3.7,2.4v.2h-12.8v-.2c2.4-.2,3.7-.6,3.7-2.4Z"/>
      <path class="st0" d="M377.4,538.4h-20.6v-.2c1.6-.6,3-1.4,3-2.8v-22c0-1.4-1.4-1.8-3-2v-.2h21.4l1.4,6.9h-.2c-3-4.3-4.5-6.2-9.5-6.2h-4.9v12.7h3.3c4.8,0,6.7-1.1,7.6-4.6v9.8c-.9-3.5-2.8-4.6-7.6-4.6h-3.3v12.7h5.1c5,0,7.5-2.5,10.7-7.7h.2c0,0-2.1,8.3-2.1,8.3l-.2.9-1.3-.9Z"/>
      <path class="st0" d="M415.3,538.4h-19.8v-.2c1.6-.6,3-2.1,3-4.2v-20.7c0-1.4-1.4-1.8-3-2v-.2h11.6v.2c-2,.2-3.3.6-3.3,2v24.4h3c6.6,0,8.4-2.7,12-7.4h.2c0,0-2,8-2,8l-.2.9-1.3-.9Z"/>
      <path class="st0" d="M436.2,536.2v-22.8c0-1.4-1.4-1.8-3-2v-.2h11.3v.2c-1.6.2-3,.6-3,2v22.8c0,1.4,1.4,1.8,3,2v.2h-11.3v-.2c1.6-.2,3-.6,3-2Z"/>
      <path class="st0" d="M479.9,538.4h-20.6v-.2c1.6-.6,3-1.4,3-2.8v-22c0-1.4-1.4-1.8-3-2v-.2h21.4l1.4,6.9h-.2c-3-4.3-4.5-6.2-9.5-6.2h-4.9v12.7h3.3c4.8,0,6.7-1.1,7.6-4.6v9.8c-.9-3.5-2.8-4.6-7.6-4.6h-3.3v12.7h5.1c5,0,7.5-2.5,10.7-7.7h.2c0,0-2.1,8.3-2.1,8.3l-.2.9-1.3-.9Z"/>
      <path class="st0" d="M500.9,536.2v-22.8c0-1.4-1.4-1.8-3-2v-.2h14.7c7,0,11,2.3,11,7.4s-2.8,7-7.6,8.3l4.7,6.5c2.3,3.2,3.8,4,5.8,5h0c0,.1-8.4.1-8.4.1v-.7l-7.2-10.3h-4.6v8.8c0,1.4,1.4,1.8,3,2v.2h-11.3v-.2c1.6-.2,3-.6,3-2ZM512.4,526.8c3.9,0,5.9-1.3,5.9-6.7s-1.2-8.3-7.8-8.3h-4.3v14c2,.6,4.2.9,6.2.9Z"/>
    </g>
    <g>
      <path class="st0" d="M201.3,403.6v-19h3.7c2.7,4.4,8.3,13.5,9.3,15.6h0c-.2-2.4-.2-5.4-.2-8.5v-7.1h2.6v19h-3.5c-2.4-4.1-8.4-14-9.5-16.1h0c.1,2.1.1,5.4.1,8.9v7.3h-2.7Z"/>
      <path class="st0" d="M236.2,394.8h-9.4v6.4h10.3l-.4,2.4h-12.7v-19h12.6v2.4h-9.8v5.5h9.4v2.4Z"/>
      <path class="st0" d="M246.2,403.6l-5.1-19h3c1.5,6.7,3.4,13.8,3.7,16h0c.5-2.7,3-11.2,4.2-16h2.7c1.1,4.1,3.6,13.4,4,15.9h0c.6-3.5,3.1-12.1,4.1-15.9h2.8l-5.5,19h-3c-1.1-4.3-3.4-12.9-3.9-15.3h0c-.6,2.9-2.9,11.1-4.1,15.3h-3Z"/>
      <path class="st0" d="M275.5,403.6v-6.9c0-.2,0-.4-.1-.5l-6.7-11.6h3.2c1.7,3,4.3,7.7,5.2,9.5.8-1.7,3.5-6.5,5.3-9.5h3l-6.9,11.6c0,.1-.1.2-.1.5v6.9h-2.8Z"/>
      <path class="st0" d="M305.9,394c0,5.2-3,9.9-9,9.9s-8.8-4.3-8.8-9.8,3.2-9.8,9-9.8,8.8,4,8.8,9.7ZM291.1,394c0,4,2,7.5,6,7.5s5.9-3.5,5.9-7.5-1.9-7.3-6-7.3-6,3.3-6,7.3Z"/>
      <path class="st0" d="M314.8,395.4v8.2h-2.8v-19h7.6c4,0,6.1,2.2,6.1,5.1s-1.4,4-3.2,4.5c1.4.4,2.8,1.5,2.8,4.9v.8c0,1.3,0,2.9.3,3.7h-2.7c-.3-.8-.3-2.3-.3-4.1v-.4c0-2.6-.7-3.7-4.1-3.7h-3.7ZM314.8,393h4c2.8,0,4-1,4-3.1s-1.3-3-3.7-3h-4.3v6.1Z"/>
      <path class="st0" d="M332,384.6h2.8v9.2c1.4-1.5,6-6.2,8.9-9.2h3.5l-8.1,8,8.5,11h-3.4l-7-9.2-2.4,2.1v7h-2.8v-19Z"/>
      <path class="st0" d="M213.4,427.7h-9.4v6.4h10.3l-.4,2.4h-12.7v-19h12.6v2.4h-9.8v5.5h9.4v2.4Z"/>
      <path class="st0" d="M220.5,431.1c.5,2.2,2,3.4,4.7,3.4s4-1.3,4-3-.9-2.8-4.6-3.7c-4.6-1.1-6.1-2.7-6.1-5.4s2.2-5.2,6.5-5.2,6.5,2.6,6.8,5.2h-2.9c-.3-1.6-1.3-3-4-3s-3.4,1-3.4,2.7,1,2.4,4.3,3.2c5.4,1.3,6.5,3.4,6.5,5.9s-2.3,5.5-7.1,5.5-6.9-2.6-7.4-5.6h2.9Z"/>
      <path class="st0" d="M240.6,419.8h-6.1v-2.4h15v2.4h-6.1v16.6h-2.8v-16.6Z"/>
      <path class="st0" d="M253.3,417.4h6.9c5.4,0,9,3.6,9,9.3s-3.5,9.7-9.1,9.7h-6.8v-19ZM256.2,434.1h3.8c4.3,0,6.4-3.1,6.4-7.3s-1.9-7-6.3-7h-3.8v14.3Z"/>
      <path class="st0" d="M281,436.5v-.2c0-2.7,1.7-5.4,5.4-8.2,2.8-2.1,3.6-2.8,3.6-4.7s-.9-3-3-3-3.1,1.1-3.4,3.2h-2.6c.3-3.1,2.3-5.4,6-5.4s5.7,2.6,5.7,5.2-1.2,3.8-4.5,6.3c-2.4,1.9-3.7,3.2-4.1,4.5h9.3l-.4,2.3h-12.1Z"/>
      <path class="st0" d="M309.7,427.3c0,4.6-1.3,9.5-6.4,9.5s-6.4-4.6-6.4-9.3,1.5-9.3,6.5-9.3,6.3,4.5,6.3,9.2ZM299.7,427.4c0,3.4.6,7.1,3.6,7.1s3.6-3.5,3.6-7.2-.6-7-3.5-7-3.7,3.1-3.7,7.1Z"/>
      <path class="st0" d="M313.4,436.5v-.2c0-2.7,1.7-5.4,5.4-8.2,2.8-2.1,3.6-2.8,3.6-4.7s-.9-3-3-3-3.1,1.1-3.4,3.2h-2.6c.3-3.1,2.3-5.4,6-5.4s5.7,2.6,5.7,5.2-1.2,3.8-4.5,6.3c-2.4,1.9-3.7,3.2-4.1,4.5h9.3l-.4,2.3h-12.1Z"/>
      <path class="st0" d="M338.6,422.5c-.3-1.2-1.1-2.2-2.9-2.2-2.9,0-3.8,2.7-3.9,6.3.7-1.2,2.1-2.3,4.5-2.3,3.5,0,5.6,2.5,5.6,6s-2.2,6.6-6.2,6.6-6.5-4-6.5-9.1,1.6-9.6,6.7-9.6,5.2,2.4,5.4,4.3h-2.7ZM339,430.4c0-2-.8-4-3.4-4s-3.6,1.4-3.6,4,.7,4.2,3.5,4.2,3.5-2,3.5-4.1Z"/>
    </g>
  </g>
</svg>