<?xml version="1.0" encoding="UTF-8"?>
<svg id="Layer_1" xmlns="http://www.w3.org/2000/svg" version="1.1" viewBox="0 0 223.3 185.9">
  <!-- Generator: Adobe Illustrator 29.2.1, SVG Export Plug-In . SVG Version: 2.1.0 Build 116)  -->
  <defs>
    <style>
      .st0 {
        fill: #765c4b;
      }

      .st1 {
        fill: #f7f4ef;
      }
    </style>
  </defs>
  <g>
    <g>
      <path class="st1" d="M357,.6c1,.2,2.9,1.9,3.4,3l37.8,91.1,2-1.2c10.3-23.1,17-50,27.8-72.6,4.1-8.5,14-24.3,25.3-17.1s4.1,14.9,2.5,21.4c-2.7,11.1-7.1,22.6-11.1,33.3-1.4-5.2.9-10.7,1.3-15.8.4-4.5.9-10.9,1-15.3.3-13.9-7.1-22.7-16.1-8l-38.2,97.9-49.7-106.7v106.2c0,3.1,5.8,5.5,8.6,5.9,2.4.3,9.2-1.5,8.6,1.8h-36.2c1.9-3.3,7.1-1.3,10.3-1.9s6.3-4.4,6.5-8.7c-.6-30.3-1.1-60.9-.6-91.2,0-4.4,3-15.5-1.4-18.4-2.7-1.8-8.6-1.5-11.7-1.9s-1.5.4-1.3-1.8c8.9,1.3,23-1.8,31.2,0Z"/>
      <path class="st1" d="M420.8,124.4c-1.5-1.1,0-1.6,1.3-1.8,2.8-.3,5.9.7,8.6-.5,9.5-4,10-42,12.2-52,4.3-19.5,14.5-41.1,19.7-60.8,3.8-8.8,14.2-9.6,22.9-8.9s3.5-.2,4,1.8c-5.8,0-12.8.9-14.9,7.3-7.1,27.8-17.5,54.9-23.9,82.8-3.3,14.4-7.9,27.4,11.5,30,14.5,1.9,32,0,41.8-12l10-18.5-9.5,32.6h-83.6Z"/>
    </g>
    <g>
      <path class="st1" d="M324.4,146.2h1.2l1.5,4.2c.2.5.4,1.1.6,1.6h0c.2-.5.4-1.1.5-1.6l1.5-4.2h1.2v7.9h-.9v-4.3c0-.7,0-1.6.1-2.3h0l-.6,1.8-1.5,4.1h-.7l-1.5-4.1-.6-1.8h0c0,.7.1,1.6.1,2.3v4.3h-.9v-7.9Z"/>
      <path class="st1" d="M341.3,146.2h4.5v.8h-3.5v2.5h3v.8h-3v2.9h3.7v.8h-4.7v-7.9Z"/>
      <path class="st1" d="M355.8,146.2h1v7h3.4v.8h-4.4v-7.9Z"/>
      <path class="st1" d="M369.8,146.2h1v7h3.4v.8h-4.4v-7.9Z"/>
      <path class="st1" d="M383.8,146.2h1v7.9h-1v-7.9Z"/>
      <path class="st1" d="M395.1,146.2h1l2.8,4.9.8,1.6h0c0-.8-.1-1.7-.1-2.5v-4.1h1v7.9h-1l-2.8-5-.8-1.6h0c0,.8.1,1.6.1,2.5v4.1h-1v-7.9Z"/>
      <path class="st1" d="M423.2,146.2h1.1l2.7,7.9h-1.1l-1.4-4.4c-.3-.9-.5-1.7-.8-2.7h0c-.2.9-.5,1.8-.8,2.7l-1.4,4.4h-1l2.7-7.9ZM421.9,150.9h3.6v.8h-3.6v-.8Z"/>
      <path class="st1" d="M437.2,147.1h-2.4v-.8h5.8v.8h-2.4v7h-1v-7Z"/>
      <path class="st1" d="M450.2,146.2h4.5v.8h-3.5v2.5h3v.8h-3v2.9h3.7v.8h-4.7v-7.9Z"/>
      <path class="st1" d="M464.7,146.2h1v7h3.4v.8h-4.4v-7.9Z"/>
      <path class="st1" d="M478.7,146.2h1v7.9h-1v-7.9Z"/>
      <path class="st1" d="M490,146.2h4.5v.8h-3.5v2.5h3v.8h-3v2.9h3.7v.8h-4.7v-7.9Z"/>
      <path class="st1" d="M504.5,146.2h2.5c1.6,0,2.8.6,2.8,2.2s-1.2,2.3-2.8,2.3h-1.5v3.3h-1v-7.9ZM506.8,150c1.2,0,1.9-.5,1.9-1.5s-.7-1.4-1.9-1.4h-1.3v2.9h1.3ZM506.7,150.5l.8-.5,2.4,4.1h-1.1l-2.1-3.6Z"/>
    </g>
  </g>
  <g>
    <g>
      <path class="st0" d="M51,19.6c1,.2,2.9,1.9,3.4,3l37.8,91.1,2-1.2c10.3-23.1,17-50,27.8-72.6,4.1-8.5,14-24.3,25.3-17.1s4.1,14.9,2.5,21.4c-2.7,11.1-7.1,22.6-11.1,33.3-1.4-5.2.9-10.7,1.3-15.8.4-4.5.9-10.9,1-15.3.3-13.9-7.1-22.7-16.1-8l-38.2,97.9L37,29.5v106.2c0,3.1,5.8,5.5,8.6,5.9,2.4.3,9.2-1.5,8.6,1.8H18c1.9-3.3,7.1-1.3,10.3-1.9s6.3-4.4,6.5-8.7c-.6-30.3-1.1-60.9-.6-91.2s3-15.5-1.4-18.4c-2.7-1.8-8.6-1.5-11.7-1.9s-1.5.4-1.3-1.8c8.9,1.3,23-1.8,31.2,0Z"/>
      <path class="st0" d="M114.8,143.4c-1.5-1.1,0-1.6,1.3-1.8,2.8-.3,5.9.7,8.6-.5,9.5-4,10-42,12.2-52,4.3-19.5,14.5-41.1,19.7-60.8,3.8-8.8,14.2-9.6,22.9-8.9s3.5-.2,4,1.8c-5.8,0-12.8.9-14.9,7.3-7.1,27.8-17.5,54.9-23.9,82.8-3.3,14.4-7.9,27.4,11.5,30,14.5,1.9,32,0,41.8-12l10-18.5-9.5,32.6h-83.6Z"/>
    </g>
    <g>
      <path class="st0" d="M18.4,165.2h1.2l1.5,4.2c.2.5.4,1.1.6,1.6h0c.2-.5.4-1.1.5-1.6l1.5-4.2h1.2v7.9h-.9v-4.3c0-.7,0-1.6.1-2.3h0l-.6,1.8-1.5,4.1h-.7l-1.5-4.1-.6-1.8h0c0,.7.1,1.6.1,2.3v4.3h-.9v-7.9Z"/>
      <path class="st0" d="M35.3,165.2h4.5v.8h-3.5v2.5h3v.8h-3v2.9h3.7v.8h-4.7v-7.9Z"/>
      <path class="st0" d="M49.8,165.2h1v7h3.4v.8h-4.4v-7.9Z"/>
      <path class="st0" d="M63.8,165.2h1v7h3.4v.8h-4.4v-7.9Z"/>
      <path class="st0" d="M77.8,165.2h1v7.9h-1v-7.9Z"/>
      <path class="st0" d="M89.1,165.2h1l2.8,4.9.8,1.6h0c0-.8-.1-1.7-.1-2.5v-4.1h1v7.9h-1l-2.8-5-.8-1.6h0c0,.8.1,1.6.1,2.5v4.1h-1v-7.9Z"/>
      <path class="st0" d="M117.2,165.2h1.1l2.7,7.9h-1.1l-1.4-4.4c-.3-.9-.5-1.7-.8-2.7h0c-.2.9-.5,1.8-.8,2.7l-1.4,4.4h-1l2.7-7.9ZM115.9,169.9h3.6v.8h-3.6v-.8Z"/>
      <path class="st0" d="M131.2,166.1h-2.4v-.8h5.8v.8h-2.4v7h-1v-7Z"/>
      <path class="st0" d="M144.2,165.2h4.5v.8h-3.5v2.5h3v.8h-3v2.9h3.7v.8h-4.7v-7.9Z"/>
      <path class="st0" d="M158.7,165.2h1v7h3.4v.8h-4.4v-7.9Z"/>
      <path class="st0" d="M172.7,165.2h1v7.9h-1v-7.9Z"/>
      <path class="st0" d="M184,165.2h4.5v.8h-3.5v2.5h3v.8h-3v2.9h3.7v.8h-4.7v-7.9Z"/>
      <path class="st0" d="M198.5,165.2h2.5c1.6,0,2.8.6,2.8,2.2s-1.2,2.3-2.8,2.3h-1.5v3.3h-1v-7.9ZM200.8,169c1.2,0,1.9-.5,1.9-1.5s-.7-1.4-1.9-1.4h-1.3v2.9h1.3ZM200.7,169.5l.8-.5,2.4,4.1h-1.1l-2.1-3.6Z"/>
    </g>
  </g>
</svg>